<svg width="61" height="11" viewBox="0 0 61 11" fill="none" xmlns="http://www.w3.org/2000/svg">
<path d="M6.99 1.515C3.51 7.395 1.735 10.39 1.665 10.5C1.595 10.63 1.485 10.695 1.335 10.695H-1.10269e-06C2.71 6.045 4.66 2.69 5.85 0.63C5.95 0.439999 6.095 0.289999 6.285 0.179999C6.485 0.0599989 6.7 -1.19209e-06 6.93 -1.19209e-06H7.77C8.63 1.61 10.535 5.175 13.485 10.695H12.39C12.06 10.695 11.815 10.55 11.655 10.26C11.235 9.46 10.65 8.365 9.9 6.975L6.99 1.515ZM26.9141 -1.19209e-06L21.7991 5.34L26.9141 10.695H25.6991C25.3891 10.695 25.1191 10.575 24.8891 10.335L20.9591 6.225L17.0291 10.335C16.7991 10.575 16.5291 10.695 16.2191 10.695H14.8841C16.1141 9.405 19.4091 5.96 24.7691 0.36C24.9991 0.119999 25.2691 -1.19209e-06 25.5791 -1.19209e-06H26.9141ZM19.0841 3.405C18.9641 3.525 18.8241 3.585 18.6641 3.585C18.5041 3.585 18.3641 3.525 18.2441 3.405L15.0041 -1.19209e-06H16.2191C16.5291 -1.19209e-06 16.7991 0.119999 17.0291 0.36L19.5041 2.955L19.0841 3.405ZM30.2456 10.695H29.5256C29.3256 10.695 29.1556 10.63 29.0156 10.5C28.8756 10.36 28.8056 10.195 28.8056 10.005V-1.19209e-06H29.5256C29.7256 -1.19209e-06 29.8956 0.0699988 30.0356 0.209999C30.1756 0.339999 30.2456 0.499999 30.2456 0.689999V10.695ZM43.3007 2.67C43.8007 3.49 44.0507 4.385 44.0507 5.355C44.0507 6.315 43.8007 7.21 43.3007 8.04C42.8007 8.86 42.1207 9.51 41.2607 9.99C40.4107 10.46 39.4807 10.695 38.4707 10.695C37.4607 10.695 36.5257 10.46 35.6657 9.99C34.8057 9.51 34.1257 8.86 33.6257 8.04C33.1257 7.21 32.8757 6.315 32.8757 5.355C32.8757 4.385 33.1257 3.49 33.6257 2.67C34.1257 1.85 34.8057 1.2 35.6657 0.719999C36.5257 0.239999 37.4607 -1.19209e-06 38.4707 -1.19209e-06C39.4807 -1.19209e-06 40.4107 0.239999 41.2607 0.719999C42.1207 1.2 42.8007 1.85 43.3007 2.67ZM41.4407 2.52C40.6207 1.73 39.6257 1.335 38.4557 1.335C37.2957 1.335 36.3057 1.73 35.4857 2.52C34.6657 3.3 34.2557 4.245 34.2557 5.355C34.2557 6.455 34.6657 7.4 35.4857 8.19C36.3057 8.97 37.2957 9.36 38.4557 9.36C39.6257 9.36 40.6207 8.97 41.4407 8.19C42.2607 7.4 42.6707 6.455 42.6707 5.355C42.6707 4.245 42.2607 3.3 41.4407 2.52ZM60.2849 10.635C60.0449 10.635 59.8399 10.57 59.6699 10.44C59.4999 10.3 59.4149 10.135 59.4149 9.945V2.88L54.9149 10.23C54.7249 10.54 54.3899 10.695 53.9099 10.695C53.4399 10.705 53.1099 10.55 52.9199 10.23L48.4199 2.88V9.945C48.4199 10.135 48.3349 10.3 48.1649 10.44C47.9949 10.57 47.7899 10.635 47.5499 10.635H47.0249L47.0099 -1.19209e-06H47.7749C48.1049 -1.19209e-06 48.3399 0.114999 48.4799 0.344999L53.9249 9.435L59.3549 0.344999C59.4949 0.114999 59.7299 -1.19209e-06 60.0599 -1.19209e-06H60.8249L60.8099 10.635H60.2849Z" fill="#C084FC"/>
</svg>
