<svg width="96" height="96" viewBox="0 0 96 96" fill="none" xmlns="http://www.w3.org/2000/svg">
<rect width="96" height="96" fill="black"/>
<path d="M23.585 43.82C20.105 49.7 18.33 52.695 18.26 52.805C18.19 52.935 18.08 53 17.93 53H16.595C19.305 48.35 21.255 44.995 22.445 42.935C22.545 42.745 22.69 42.595 22.88 42.485C23.08 42.365 23.295 42.305 23.525 42.305H24.365C25.225 43.915 27.13 47.48 30.08 53H28.985C28.655 53 28.41 52.855 28.25 52.565C27.83 51.765 27.245 50.67 26.495 49.28L23.585 43.82ZM43.5091 42.305L38.3941 47.645L43.5091 53H42.2941C41.9841 53 41.7141 52.88 41.4841 52.64L37.5541 48.53L33.6241 52.64C33.3941 52.88 33.1241 53 32.8141 53H31.4791C32.7091 51.71 36.0041 48.265 41.3641 42.665C41.5941 42.425 41.8641 42.305 42.1741 42.305H43.5091ZM35.6791 45.71C35.5591 45.83 35.4191 45.89 35.2591 45.89C35.0991 45.89 34.9591 45.83 34.8391 45.71L31.5991 42.305H32.8141C33.1241 42.305 33.3941 42.425 33.6241 42.665L36.0991 45.26L35.6791 45.71ZM46.8406 53H46.1206C45.9206 53 45.7506 52.935 45.6106 52.805C45.4706 52.665 45.4006 52.5 45.4006 52.31V42.305H46.1206C46.3206 42.305 46.4906 42.375 46.6306 42.515C46.7706 42.645 46.8406 42.805 46.8406 42.995V53ZM59.8957 44.975C60.3957 45.795 60.6457 46.69 60.6457 47.66C60.6457 48.62 60.3957 49.515 59.8957 50.345C59.3957 51.165 58.7157 51.815 57.8557 52.295C57.0057 52.765 56.0757 53 55.0657 53C54.0557 53 53.1207 52.765 52.2607 52.295C51.4007 51.815 50.7207 51.165 50.2207 50.345C49.7207 49.515 49.4707 48.62 49.4707 47.66C49.4707 46.69 49.7207 45.795 50.2207 44.975C50.7207 44.155 51.4007 43.505 52.2607 43.025C53.1207 42.545 54.0557 42.305 55.0657 42.305C56.0757 42.305 57.0057 42.545 57.8557 43.025C58.7157 43.505 59.3957 44.155 59.8957 44.975ZM58.0357 44.825C57.2157 44.035 56.2207 43.64 55.0507 43.64C53.8907 43.64 52.9007 44.035 52.0807 44.825C51.2607 45.605 50.8507 46.55 50.8507 47.66C50.8507 48.76 51.2607 49.705 52.0807 50.495C52.9007 51.275 53.8907 51.665 55.0507 51.665C56.2207 51.665 57.2157 51.275 58.0357 50.495C58.8557 49.705 59.2657 48.76 59.2657 47.66C59.2657 46.55 58.8557 45.605 58.0357 44.825ZM76.8799 52.94C76.6399 52.94 76.4349 52.875 76.2649 52.745C76.0949 52.605 76.0099 52.44 76.0099 52.25V45.185L71.5099 52.535C71.3199 52.845 70.9849 53 70.5049 53C70.0349 53.01 69.7049 52.855 69.5149 52.535L65.0149 45.185V52.25C65.0149 52.44 64.9299 52.605 64.7599 52.745C64.5899 52.875 64.3849 52.94 64.1449 52.94H63.6199L63.6049 42.305H64.3699C64.6999 42.305 64.9349 42.42 65.0749 42.65L70.5199 51.74L75.9499 42.65C76.0899 42.42 76.3249 42.305 76.6549 42.305H77.4199L77.4049 52.94H76.8799Z" fill="#C084FC"/>
</svg>
